<?xml version="1.0" standalone="no"?>
<!DOCTYPE svg PUBLIC "-//W3C//DTD SVG 20010904//EN"
 "http://www.w3.org/TR/2001/REC-SVG-20010904/DTD/svg10.dtd">
<svg version="1.0" xmlns="http://www.w3.org/2000/svg"
 width="260.000000pt" height="260.000000pt" viewBox="0 0 260.000000 260.000000"
 preserveAspectRatio="xMidYMid meet">
<metadata>
Created by potrace 1.11, written by Peter Selinger 2001-2013
</metadata>
<g transform="translate(0.000000,260.000000) scale(0.100000,-0.100000)"
fill="#000000" stroke="none">
<path d="M287 2580 c-135 -43 -231 -142 -271 -279 -14 -48 -16 -166 -16 -996
0 -814 2 -949 15 -1000 36 -138 138 -243 278 -287 56 -17 111 -18 1007 -18
830 0 954 2 1001 16 141 41 242 142 283 283 14 47 16 169 16 1001 0 832 -2
954 -16 1001 -39 135 -127 227 -261 275 l-68 23 -955 0 c-902 0 -958 -1 -1013
-19z"/>
</g>
</svg>
